<svg xmlns="http://www.w3.org/2000/svg" width="104.166" height="105.809" viewBox="0 0 104.166 105.809">
  <g id="Group_14290" data-name="Group 14290" transform="translate(65.373 1659.045)">
    <path id="Path_49424" data-name="Path 49424" d="M-20.514-1553.236c-1.832-.263-3.674-.47-5.494-.8a46.625,46.625,0,0,1-26.436-14.411A47.02,47.02,0,0,1-65.1-1596.1a47.8,47.8,0,0,1,24.157-46.665,54.008,54.008,0,0,1,6.725-3.123c2.267-.876,4.642-1.47,7.051-2.213-.119-.229-.268-.522-.422-.812a6.879,6.879,0,0,1,1.73-8.585,6.768,6.768,0,0,1,8.745.116,49.089,49.089,0,0,1,7.984,8.619,1.985,1.985,0,0,0,1.117.747,52.293,52.293,0,0,1,11.5,3.89,1.555,1.555,0,0,0,1.275-.13c2.381-1.513,4.69-3.142,7.084-4.633a7.6,7.6,0,0,1,11.558,5.029,7.891,7.891,0,0,1-.694,4.916A7.819,7.819,0,0,1,27.9-1634.7a7.726,7.726,0,0,1-.1,6.75,7.759,7.759,0,0,1,5.2,4.259,7.9,7.9,0,0,1-.1,6.721l.728.268a7.321,7.321,0,0,1,5.082,6.207,7.274,7.274,0,0,1-3.209,7.258c-1.454,1.041-2.961,2.011-4.472,2.969a1.5,1.5,0,0,0-.752,1.322q-.245,3.084-.666,6.152a2.119,2.119,0,0,1-.7,1.406,1.964,1.964,0,0,1-1.685.169,2.092,2.092,0,0,1-.862-1.558,29.959,29.959,0,0,1,.424-3.581,9.611,9.611,0,0,0,.005-1.041c-.394.242-.711.424-1.016.625-5.4,3.569-10.806,7.116-16.177,10.722a10.94,10.94,0,0,1-8,2.028c-2.953-.457-5.274.8-7.25,2.413a17.2,17.2,0,0,1,.531,3.323,4.47,4.47,0,0,1-2.361,3.548q-11.336,7.468-22.644,14.98c-.417.276-.829.56-1.244.841l.008.342c2.468.53,4.913,1.235,7.408,1.56,14.241,1.853,26.694-2.076,37.221-11.87a42.743,42.743,0,0,0,10.652-15.789c.152-.384.284-.776.447-1.154a1.672,1.672,0,0,1,2.237-1.067,1.66,1.66,0,0,1,.822,2.253,44.258,44.258,0,0,1-5.822,11.116c-8.737,11.952-20.451,18.726-35.23,20.117-.3.029-.6.113-.9.171Zm12.751-30.983c.66-.433,1.242-.795,1.8-1.186a10.819,10.819,0,0,1,7.942-1.871,7.425,7.425,0,0,0,5.3-1.2q13.086-8.656,26.162-17.328a4.31,4.31,0,0,0,1.353-6.057,4.35,4.35,0,0,0-6.176-1.145c-.985.631-1.949,1.294-2.932,1.93-1.076.7-2.059.575-2.611-.306-.529-.844-.249-1.724.8-2.431,1.513-1.018,3.055-1.994,4.552-3.033a4.315,4.315,0,0,0,1.276-6,4.342,4.342,0,0,0-6.088-1.208c-1.018.643-2.005,1.335-3.016,1.99-1.079.7-2.066.578-2.614-.3-.533-.856-.264-1.718.793-2.429,1.513-1.018,3.055-1.993,4.553-3.032a4.294,4.294,0,0,0,1.244-6.072,4.313,4.313,0,0,0-6.013-1.159c-1.02.64-2.007,1.331-3.018,1.987-1.114.723-2.04.628-2.617-.252-.558-.851-.255-1.782.827-2.506,1.573-1.052,3.177-2.06,4.716-3.16a4.08,4.08,0,0,0,1.68-4.273,4.1,4.1,0,0,0-2.818-3.285,4.376,4.376,0,0,0-4.109.652q-8.252,5.487-16.523,10.946c-1.9,1.26-2.705.991-3.513-1.18-.384-1.031-.78-2.057-1.135-3.1-2.167-6.363-6.337-11.284-11.28-15.64a3.49,3.49,0,0,0-4.138-.372,3.437,3.437,0,0,0-1.677,3.7,6.569,6.569,0,0,0,.881,1.953,22.881,22.881,0,0,1,3.024,17.057c-1.423,6.726-3.063,13.405-4.565,20.115a2.171,2.171,0,0,0,.269,1.494c2.164,3.354,4.383,6.672,6.587,10C-15.167-1595.39-11.5-1589.856-7.764-1584.219Zm-13.65,14.75c-.239-.375-.433-.694-.64-1q-8.505-12.689-17.012-25.377a5.217,5.217,0,0,1-.542-.875,1.548,1.548,0,0,1,.518-2.016,1.52,1.52,0,0,1,2.14.223,5.537,5.537,0,0,1,.607.832q8.512,12.685,17.021,25.371c.221.329.455.649.7,1,3.12-2.065,6.132-4.057,9.142-6.053,1.379-.915,1.453-1.275.54-2.654q-6.977-10.544-13.959-21.084-3.761-5.68-7.525-11.358c-.749-1.129-1.232-1.221-2.375-.477-.721.469-1.436.948-2.153,1.422l-7.284,4.811a1.038,1.038,0,0,0,.058.28c.508.777,1.031,1.545,1.532,2.326a1.69,1.69,0,0,1-.295,2.534c-.82.538-1.761.265-2.458-.735-.564-.809-1.109-1.633-1.637-2.413a1.211,1.211,0,0,0-.3.063c-5.229,3.444-10.46,6.884-15.666,10.362a1.209,1.209,0,0,0-.35,1.022q4.556,22.632,25.332,32.728a1.232,1.232,0,0,0,1.4-.16q5.278-3.526,10.579-7.018Zm-4.031-75.376c-23.87,3.964-38.734,27-36.332,47.129.341-.219.658-.419.97-.626q13.122-8.689,26.239-17.385a4.316,4.316,0,0,1,3.285-.929,21.869,21.869,0,0,1,2.892,1.019c.048-.177.145-.5.22-.822.81-3.481,1.677-6.951,2.406-10.449.686-3.291,1.408-6.592,1.776-9.925A16.022,16.022,0,0,0-25.445-1644.844Zm18.985.468,2.381,6,5.105-3.384Z" fill="#fff"/>
  </g>
</svg>
