<svg xmlns="http://www.w3.org/2000/svg" width="54.27" height="54.27" viewBox="0 0 54.27 54.27">
  <g id="Group_14844" data-name="Group 14844" transform="translate(22288.906 -11142.205)">
    <circle id="Ellipse_1902" data-name="Ellipse 1902" cx="27.135" cy="27.135" r="27.135" transform="translate(-22288.906 11142.205)" fill="#fff"/>
    <path id="Path_52102" data-name="Path 52102" d="M1197.335,258.975a6.516,6.516,0,0,0-6.516-6.516h-16.662a6.516,6.516,0,0,0-6.516,6.516v7.754a6.516,6.516,0,0,0,6.516,6.516h16.662a6.516,6.516,0,0,0,6.516-6.516Zm-9.8,4.457-7.471,3.7c-.293.158-1.288-.054-1.288-.387v-7.588c0-.337,1-.549,1.3-.382l7.153,3.891C1187.524,262.834,1187.84,263.268,1187.537,263.432Z" transform="translate(-23444.578 10906.489)" fill="#49a0e1"/>
  </g>
</svg>
