<svg xmlns="http://www.w3.org/2000/svg" width="54.27" height="54.27" viewBox="0 0 54.27 54.27">
  <g id="Group_14842" data-name="Group 14842" transform="translate(22447.34 -11142.04)">
    <path id="Path_52103" data-name="Path 52103" d="M27.135,0A27.135,27.135,0,1,1,0,27.135,27.135,27.135,0,0,1,27.135,0Z" transform="translate(-22447.34 11142.04)" fill="#fff"/>
    <g id="Group_14839" data-name="Group 14839" transform="translate(-22436.113 11153.229)">
      <g id="Group_14838" data-name="Group 14838">
        <path id="Path_52097" data-name="Path 52097" d="M1084.941,244.147a1.865,1.865,0,1,0,1.865,1.865A1.864,1.864,0,0,0,1084.941,244.147Z" transform="translate(-1060.61 -238.466)" fill="#49a0e1"/>
        <path id="Path_52098" data-name="Path 52098" d="M1081.614,245.706a7.835,7.835,0,1,0,7.835,7.835A7.844,7.844,0,0,0,1081.614,245.706Zm0,12.854a5.019,5.019,0,1,1,5.019-5.019A5.024,5.024,0,0,1,1081.614,258.56Z" transform="translate(-1065.574 -237.633)" fill="#49a0e1"/>
        <path id="Path_52099" data-name="Path 52099" d="M1090.688,272.258h-12.7a9.568,9.568,0,0,1-9.558-9.556V250a9.568,9.568,0,0,1,9.558-9.556h12.7a9.569,9.569,0,0,1,9.557,9.556v12.7A9.568,9.568,0,0,1,1090.688,272.258Zm-12.7-28.823a6.571,6.571,0,0,0-6.563,6.563v12.7a6.57,6.57,0,0,0,6.563,6.563h12.7a6.57,6.57,0,0,0,6.563-6.563V250a6.571,6.571,0,0,0-6.563-6.563Z" transform="translate(-1068.429 -240.443)" fill="#49a0e1"/>
      </g>
    </g>
  </g>
</svg>
