<svg id="Group_14841" data-name="Group 14841" xmlns="http://www.w3.org/2000/svg" width="54.27" height="54.269" viewBox="0 0 54.27 54.269">
  <path id="Path_52100" data-name="Path 52100" d="M1066.054,260.391a27.135,27.135,0,1,0-31.375,26.8V268.234h-6.89v-7.843h6.89v-5.979c0-6.8,4.051-10.557,10.249-10.557a41.684,41.684,0,0,1,6.074.531v6.677h-3.422c-3.371,0-4.422,2.092-4.422,4.238v5.091h7.527l-1.2,7.843h-6.323V287.2A27.142,27.142,0,0,0,1066.054,260.391Z" transform="translate(-1011.783 -233.256)" fill="#fff"/>
  <path id="Path_52101" data-name="Path 52101" d="M1043.91,264.545l1.2-7.843h-7.527v-5.091c0-2.146,1.051-4.238,4.422-4.238h3.422V240.7a41.69,41.69,0,0,0-6.074-.531c-6.2,0-10.249,3.756-10.249,10.557V256.7h-6.89v7.843h6.89v18.961a27.418,27.418,0,0,0,8.479,0V264.545Z" transform="translate(-1006.212 -229.567)" fill="#418fdf"/>
</svg>
