<svg xmlns="http://www.w3.org/2000/svg" width="29.596" height="24.359" viewBox="0 0 29.596 24.359">
  <path id="Path_52096" data-name="Path 52096" d="M1142.738,254.19a12.24,12.24,0,0,1-2.994.853c.482-.081,1.189-.953,1.473-1.305a5.446,5.446,0,0,0,.992-1.811c.026-.051.046-.117-.006-.155a.167.167,0,0,0-.158.014,15.308,15.308,0,0,1-3.549,1.357.233.233,0,0,1-.244-.066,2.9,2.9,0,0,0-.311-.316,6.237,6.237,0,0,0-1.718-1.054,5.987,5.987,0,0,0-2.637-.425,6.3,6.3,0,0,0-2.5.707,6.447,6.447,0,0,0-2.017,1.647,6.187,6.187,0,0,0-1.206,2.414,6.563,6.563,0,0,0-.064,2.548c.02.143.008.161-.121.143-4.875-.726-8.915-2.47-12.194-6.206-.143-.163-.219-.163-.336.012-1.436,2.15-.739,5.606,1.054,7.306.239.225.485.453.75.658a6.215,6.215,0,0,1-2.353-.658c-.143-.091-.215-.04-.227.123a3.627,3.627,0,0,0,.038.7,6.254,6.254,0,0,0,3.853,4.985,3.778,3.778,0,0,0,.782.239,6.987,6.987,0,0,1-2.307.071c-.169-.032-.233.052-.169.213a6.489,6.489,0,0,0,4.849,4.06c.219.038.44.038.66.09-.012.02-.026.02-.038.038-.544.831-2.433,1.448-3.312,1.756a11.852,11.852,0,0,1-5.028.643c-.271-.04-.328-.037-.4,0s-.009.11.078.181c.344.225.692.426,1.048.621a16.516,16.516,0,0,0,3.36,1.344c6.042,1.669,12.848.443,17.383-4.063,3.562-3.54,4.81-8.421,4.81-13.308,0-.192.227-.3.36-.4a11.766,11.766,0,0,0,2.367-2.46.753.753,0,0,0,.156-.472v-.025C1142.859,254.111,1142.858,254.134,1142.738,254.19Z" transform="translate(-1113.264 -251.269)" fill="#49a0e1"/>
</svg>
