<svg xmlns="http://www.w3.org/2000/svg" width="50.947" height="55.538" viewBox="0 0 50.947 55.538">
  <g id="Group_14521" data-name="Group 14521" transform="translate(24082.988 -10114.016)">
    <path id="Path_51856" data-name="Path 51856" d="M745.458,2941.6c1.32,1.308,2.634,2.623,3.961,3.925q11.879,11.656,23.764,23.306a6.686,6.686,0,0,0,.6.463L745.4,2997.134a4.264,4.264,0,0,1-2.416-3.686c-.015-.234,0-.469,0-.7,0-15.4.021-30.794-.025-46.19-.006-2.084.447-3.8,2.291-4.957Z" transform="translate(-24825.939 7172.42)" fill="#fff"/>
    <path id="Path_51857" data-name="Path 51857" d="M805.11,2952.246l30.5,17.218-6.379,6.715-24.187-23.854Z" transform="translate(-24879.039 7163.313)" fill="#fff"/>
    <path id="Path_51858" data-name="Path 51858" d="M805.153,3173.064l24.146-23.813,6.353,6.719L805.2,3173.159Z" transform="translate(-24879.129 6994.85)" fill="#fff"/>
    <path id="Path_51859" data-name="Path 51859" d="M989.666,3092.767c.845-.925,1.628-1.848,2.481-2.7,1.379-1.379,2.812-2.7,4.2-4.073a.623.623,0,0,1,.911-.13c1.88,1.106,3.788,2.164,5.679,3.251a3.823,3.823,0,0,1,1.932,3.578,3.731,3.731,0,0,1-1.952,3.5c-1.928,1.058-3.842,2.141-5.759,3.219-.238.134-.414.2-.658-.035C994.2,3097.131,991.881,3094.9,989.666,3092.767Z" transform="translate(-25036.912 7049.176)" fill="#fff"/>
  </g>
</svg>
